<mxfile host="65bd71144e">
    <diagram id="y3Vs4Ge3QkYrhWa5gfJj" name="Page-1">
        <mxGraphModel dx="1849" dy="2156" grid="1" gridSize="10" guides="1" tooltips="1" connect="1" arrows="1" fold="1" page="1" pageScale="1" pageWidth="850" pageHeight="1100" math="0" shadow="0">
            <root>
                <mxCell id="0"/>
                <mxCell id="1" parent="0"/>
                <mxCell id="6" value="" style="edgeStyle=none;html=1;fontSize=18;strokeColor=#666666;fillColor=#f5f5f5;" edge="1" parent="1" source="3" target="5">
                    <mxGeometry relative="1" as="geometry"/>
                </mxCell>
                <mxCell id="17" style="edgeStyle=none;html=1;exitX=0.5;exitY=0;exitDx=0;exitDy=0;entryX=0.5;entryY=1;entryDx=0;entryDy=0;fontSize=14;strokeColor=#666666;fillColor=#f5f5f5;" edge="1" parent="1" source="3" target="14">
                    <mxGeometry relative="1" as="geometry"/>
                </mxCell>
                <mxCell id="18" style="edgeStyle=none;html=1;exitX=0.5;exitY=1;exitDx=0;exitDy=0;entryX=0.603;entryY=0.047;entryDx=0;entryDy=0;entryPerimeter=0;fontSize=14;strokeColor=#666666;fillColor=#f5f5f5;" edge="1" parent="1" source="3" target="13">
                    <mxGeometry relative="1" as="geometry"/>
                </mxCell>
                <mxCell id="19" style="edgeStyle=none;html=1;exitX=0.75;exitY=1;exitDx=0;exitDy=0;entryX=0.5;entryY=0;entryDx=0;entryDy=0;fontSize=14;strokeColor=#666666;fillColor=#f5f5f5;" edge="1" parent="1" source="3" target="15">
                    <mxGeometry relative="1" as="geometry"/>
                </mxCell>
                <mxCell id="3" value="&lt;font style=&quot;font-size: 18px;&quot;&gt;ADMIN&lt;/font&gt;" style="rounded=0;whiteSpace=wrap;html=1;fillColor=#a20025;fontColor=#ffffff;strokeColor=#6F0000;" vertex="1" parent="1">
                    <mxGeometry x="30" y="440" width="140" height="50" as="geometry"/>
                </mxCell>
                <mxCell id="8" value="" style="edgeStyle=none;html=1;fontSize=18;strokeColor=#666666;fillColor=#f5f5f5;" edge="1" parent="1" source="5" target="7">
                    <mxGeometry relative="1" as="geometry"/>
                </mxCell>
                <mxCell id="24" style="edgeStyle=none;html=1;exitX=0.5;exitY=0;exitDx=0;exitDy=0;fontSize=14;strokeColor=#666666;fillColor=#f5f5f5;" edge="1" parent="1" source="5" target="22">
                    <mxGeometry relative="1" as="geometry"/>
                </mxCell>
                <mxCell id="5" value="&lt;font style=&quot;font-size: 18px;&quot;&gt;Manage&lt;/font&gt;" style="rhombus;whiteSpace=wrap;html=1;rounded=0;fillColor=#60a917;strokeColor=#2D7600;fontColor=#ffffff;" vertex="1" parent="1">
                    <mxGeometry x="220" y="415" width="110" height="100" as="geometry"/>
                </mxCell>
                <mxCell id="26" value="" style="edgeStyle=none;html=1;fontSize=14;strokeColor=#666666;fillColor=#f5f5f5;" edge="1" parent="1" source="7" target="25">
                    <mxGeometry relative="1" as="geometry"/>
                </mxCell>
                <mxCell id="7" value="&lt;font style=&quot;font-size: 14px;&quot;&gt;Shopping Portal&lt;br&gt;Website&lt;/font&gt;" style="whiteSpace=wrap;html=1;rounded=0;fillColor=#a20025;fontColor=#ffffff;strokeColor=#6F0000;" vertex="1" parent="1">
                    <mxGeometry x="370" y="440" width="165" height="60" as="geometry"/>
                </mxCell>
                <mxCell id="13" value="&lt;font style=&quot;font-size: 14px;&quot;&gt;Admin Name&lt;/font&gt;" style="ellipse;whiteSpace=wrap;html=1;fontSize=18;fillColor=#647687;fontColor=#ffffff;strokeColor=#314354;gradientColor=none;" vertex="1" parent="1">
                    <mxGeometry x="40" y="550" width="100" height="50" as="geometry"/>
                </mxCell>
                <mxCell id="14" value="Admin_id" style="ellipse;whiteSpace=wrap;html=1;fontSize=18;fillColor=#647687;fontColor=#ffffff;strokeColor=#314354;gradientColor=none;" vertex="1" parent="1">
                    <mxGeometry x="50" y="339.72" width="100" height="50" as="geometry"/>
                </mxCell>
                <mxCell id="15" value="Admin_role" style="ellipse;whiteSpace=wrap;html=1;fontSize=18;fillColor=#647687;fontColor=#ffffff;strokeColor=#314354;gradientColor=none;" vertex="1" parent="1">
                    <mxGeometry x="150" y="550" width="100" height="50" as="geometry"/>
                </mxCell>
                <mxCell id="22" value="Website_url" style="ellipse;whiteSpace=wrap;html=1;fontSize=18;fillColor=#647687;fontColor=#ffffff;strokeColor=#314354;gradientColor=none;" vertex="1" parent="1">
                    <mxGeometry x="220" y="320" width="110" height="61.25" as="geometry"/>
                </mxCell>
                <mxCell id="28" value="" style="edgeStyle=none;html=1;fontSize=18;strokeColor=#666666;fillColor=#f5f5f5;" edge="1" parent="1" source="25" target="27">
                    <mxGeometry relative="1" as="geometry"/>
                </mxCell>
                <mxCell id="25" value="&lt;font style=&quot;font-size: 18px;&quot;&gt;Has&lt;/font&gt;" style="rhombus;whiteSpace=wrap;html=1;rounded=0;fillColor=#60a917;strokeColor=#2D7600;fontColor=#ffffff;" vertex="1" parent="1">
                    <mxGeometry x="590" y="430" width="80" height="80" as="geometry"/>
                </mxCell>
                <mxCell id="30" value="" style="edgeStyle=none;html=1;fontSize=18;strokeColor=#666666;fillColor=#f5f5f5;" edge="1" parent="1" source="27" target="29">
                    <mxGeometry relative="1" as="geometry"/>
                </mxCell>
                <mxCell id="27" value="&lt;font style=&quot;font-size: 18px;&quot;&gt;Product Category&lt;/font&gt;" style="whiteSpace=wrap;html=1;rounded=0;fillColor=#a20025;fontColor=#ffffff;strokeColor=#6F0000;" vertex="1" parent="1">
                    <mxGeometry x="720" y="440" width="167.5" height="60" as="geometry"/>
                </mxCell>
                <mxCell id="32" value="" style="edgeStyle=none;html=1;fontSize=18;exitX=0.5;exitY=0;exitDx=0;exitDy=0;fillColor=#f5f5f5;strokeColor=#666666;" edge="1" parent="1" source="29" target="31">
                    <mxGeometry relative="1" as="geometry">
                        <mxPoint x="980" y="430" as="sourcePoint"/>
                    </mxGeometry>
                </mxCell>
                <mxCell id="29" value="&lt;font style=&quot;font-size: 18px;&quot;&gt;Has&lt;/font&gt;" style="rhombus;whiteSpace=wrap;html=1;rounded=0;fillColor=#60a917;strokeColor=#2D7600;fontColor=#ffffff;" vertex="1" parent="1">
                    <mxGeometry x="930" y="430" width="80" height="80" as="geometry"/>
                </mxCell>
                <mxCell id="40" style="edgeStyle=none;html=1;exitX=0.5;exitY=0;exitDx=0;exitDy=0;fontSize=18;fillColor=#f5f5f5;strokeColor=#666666;" edge="1" parent="1" source="31" target="34">
                    <mxGeometry relative="1" as="geometry"/>
                </mxCell>
                <mxCell id="41" style="edgeStyle=none;html=1;exitX=1;exitY=0;exitDx=0;exitDy=0;entryX=0;entryY=1;entryDx=0;entryDy=0;fontSize=18;fillColor=#f5f5f5;strokeColor=#666666;" edge="1" parent="1" source="31" target="33">
                    <mxGeometry relative="1" as="geometry"/>
                </mxCell>
                <mxCell id="42" style="edgeStyle=none;html=1;exitX=1;exitY=0.25;exitDx=0;exitDy=0;entryX=0;entryY=0.5;entryDx=0;entryDy=0;fontSize=18;fillColor=#f5f5f5;strokeColor=#666666;" edge="1" parent="1" source="31" target="35">
                    <mxGeometry relative="1" as="geometry"/>
                </mxCell>
                <mxCell id="43" style="edgeStyle=none;html=1;exitX=1;exitY=0.75;exitDx=0;exitDy=0;entryX=0;entryY=0;entryDx=0;entryDy=0;fontSize=18;fillColor=#f5f5f5;strokeColor=#666666;" edge="1" parent="1" source="31" target="36">
                    <mxGeometry relative="1" as="geometry"/>
                </mxCell>
                <mxCell id="31" value="&lt;font style=&quot;font-size: 18px;&quot;&gt;Product&lt;/font&gt;" style="whiteSpace=wrap;html=1;rounded=0;fillColor=#a20025;fontColor=#ffffff;strokeColor=#6F0000;" vertex="1" parent="1">
                    <mxGeometry x="910" y="290" width="120" height="60" as="geometry"/>
                </mxCell>
                <mxCell id="33" value="prod_name" style="ellipse;whiteSpace=wrap;html=1;fontSize=18;fillColor=#647687;fontColor=#ffffff;strokeColor=#314354;gradientColor=none;" vertex="1" parent="1">
                    <mxGeometry x="1060" y="166.47" width="110" height="61.25" as="geometry"/>
                </mxCell>
                <mxCell id="34" value="Prod_id" style="ellipse;whiteSpace=wrap;html=1;fontSize=18;fillColor=#647687;fontColor=#ffffff;strokeColor=#314354;gradientColor=none;" vertex="1" parent="1">
                    <mxGeometry x="915" y="166.47" width="110" height="61.25" as="geometry"/>
                </mxCell>
                <mxCell id="35" value="prod_price" style="ellipse;whiteSpace=wrap;html=1;fontSize=18;fillColor=#647687;fontColor=#ffffff;strokeColor=#314354;gradientColor=none;" vertex="1" parent="1">
                    <mxGeometry x="1060" y="257.72" width="110" height="61.25" as="geometry"/>
                </mxCell>
                <mxCell id="36" value="prod_status" style="ellipse;whiteSpace=wrap;html=1;fontSize=18;fillColor=#647687;fontColor=#ffffff;strokeColor=#314354;gradientColor=none;" vertex="1" parent="1">
                    <mxGeometry x="1060" y="347.72" width="110" height="61.25" as="geometry"/>
                </mxCell>
                <mxCell id="47" value="" style="edgeStyle=none;html=1;fontSize=18;strokeColor=#666666;fillColor=#f5f5f5;" edge="1" parent="1" source="44" target="46">
                    <mxGeometry relative="1" as="geometry"/>
                </mxCell>
                <mxCell id="63" style="edgeStyle=none;html=1;exitX=0;exitY=0.25;exitDx=0;exitDy=0;fontSize=18;strokeColor=#666666;fillColor=#f5f5f5;" edge="1" parent="1" source="44" target="62">
                    <mxGeometry relative="1" as="geometry"/>
                </mxCell>
                <mxCell id="64" style="edgeStyle=none;html=1;exitX=0.25;exitY=0;exitDx=0;exitDy=0;entryX=0.706;entryY=0.952;entryDx=0;entryDy=0;entryPerimeter=0;fontSize=18;strokeColor=#666666;fillColor=#f5f5f5;" edge="1" parent="1" source="44" target="61">
                    <mxGeometry relative="1" as="geometry"/>
                </mxCell>
                <mxCell id="65" style="edgeStyle=none;html=1;exitX=0.5;exitY=0;exitDx=0;exitDy=0;entryX=0.318;entryY=1;entryDx=0;entryDy=0;entryPerimeter=0;fontSize=18;strokeColor=#666666;fillColor=#f5f5f5;" edge="1" parent="1" source="44" target="60">
                    <mxGeometry relative="1" as="geometry"/>
                </mxCell>
                <mxCell id="66" style="edgeStyle=none;html=1;exitX=0.75;exitY=0;exitDx=0;exitDy=0;entryX=0;entryY=1;entryDx=0;entryDy=0;fontSize=18;strokeColor=#666666;fillColor=#f5f5f5;" edge="1" parent="1" source="44" target="59">
                    <mxGeometry relative="1" as="geometry"/>
                </mxCell>
                <mxCell id="44" value="Customer" style="rounded=1;whiteSpace=wrap;html=1;fontSize=18;fillColor=#a20025;fontColor=#ffffff;strokeColor=#6F0000;" vertex="1" parent="1">
                    <mxGeometry x="255" y="140" width="120" height="60" as="geometry"/>
                </mxCell>
                <mxCell id="49" value="" style="edgeStyle=none;html=1;fontSize=18;fillColor=#f5f5f5;strokeColor=#666666;" edge="1" parent="1" source="46" target="48">
                    <mxGeometry relative="1" as="geometry"/>
                </mxCell>
                <mxCell id="46" value="Make" style="rhombus;whiteSpace=wrap;html=1;fontSize=18;rounded=1;fillColor=#60a917;strokeColor=#2D7600;fontColor=#ffffff;" vertex="1" parent="1">
                    <mxGeometry x="425" y="130" width="105" height="80" as="geometry"/>
                </mxCell>
                <mxCell id="54" value="" style="edgeStyle=none;html=1;fontSize=18;fillColor=#f5f5f5;strokeColor=#666666;" edge="1" parent="1" source="48" target="53">
                    <mxGeometry relative="1" as="geometry"/>
                </mxCell>
                <mxCell id="71" style="edgeStyle=none;html=1;exitX=1;exitY=0.5;exitDx=0;exitDy=0;fontSize=18;fillColor=#f5f5f5;strokeColor=#666666;" edge="1" parent="1" source="48" target="70">
                    <mxGeometry relative="1" as="geometry"/>
                </mxCell>
                <mxCell id="72" style="edgeStyle=none;html=1;exitX=1;exitY=0;exitDx=0;exitDy=0;entryX=0;entryY=1;entryDx=0;entryDy=0;fontSize=18;fillColor=#f5f5f5;strokeColor=#666666;" edge="1" parent="1" source="48" target="69">
                    <mxGeometry relative="1" as="geometry"/>
                </mxCell>
                <mxCell id="73" style="edgeStyle=none;html=1;exitX=0.5;exitY=0;exitDx=0;exitDy=0;fontSize=18;fillColor=#f5f5f5;strokeColor=#666666;" edge="1" parent="1" source="48" target="68">
                    <mxGeometry relative="1" as="geometry"/>
                </mxCell>
                <mxCell id="48" value="Order" style="whiteSpace=wrap;html=1;fontSize=18;rounded=1;fillColor=#a20025;fontColor=#ffffff;strokeColor=#6F0000;" vertex="1" parent="1">
                    <mxGeometry x="595" y="140" width="120" height="60" as="geometry"/>
                </mxCell>
                <mxCell id="57" style="edgeStyle=none;html=1;exitX=1;exitY=0.5;exitDx=0;exitDy=0;entryX=0;entryY=0.25;entryDx=0;entryDy=0;fontSize=18;fillColor=#f5f5f5;strokeColor=#666666;" edge="1" parent="1" source="53" target="31">
                    <mxGeometry relative="1" as="geometry"/>
                </mxCell>
                <mxCell id="53" value="Containes" style="rhombus;whiteSpace=wrap;html=1;fontSize=18;rounded=1;fillColor=#60a917;strokeColor=#2D7600;fontColor=#ffffff;" vertex="1" parent="1">
                    <mxGeometry x="600" y="250" width="120" height="110" as="geometry"/>
                </mxCell>
                <mxCell id="59" value="cust_contact" style="ellipse;whiteSpace=wrap;html=1;fontSize=18;fillColor=#647687;fontColor=#ffffff;strokeColor=#314354;gradientColor=none;" vertex="1" parent="1">
                    <mxGeometry x="375" y="40" width="110" height="61.25" as="geometry"/>
                </mxCell>
                <mxCell id="60" value="cust_addrs" style="ellipse;whiteSpace=wrap;html=1;fontSize=18;fillColor=#647687;fontColor=#ffffff;strokeColor=#314354;gradientColor=none;" vertex="1" parent="1">
                    <mxGeometry x="280" y="-31.25" width="110" height="61.25" as="geometry"/>
                </mxCell>
                <mxCell id="61" value="cust_name" style="ellipse;whiteSpace=wrap;html=1;fontSize=18;fillColor=#647687;fontColor=#ffffff;strokeColor=#314354;gradientColor=none;" vertex="1" parent="1">
                    <mxGeometry x="160" y="10" width="110" height="61.25" as="geometry"/>
                </mxCell>
                <mxCell id="62" value="cust_id" style="ellipse;whiteSpace=wrap;html=1;fontSize=18;fillColor=#647687;fontColor=#ffffff;strokeColor=#314354;gradientColor=none;" vertex="1" parent="1">
                    <mxGeometry x="110" y="90" width="110" height="61.25" as="geometry"/>
                </mxCell>
                <mxCell id="68" value="ordeer_id" style="ellipse;whiteSpace=wrap;html=1;fontSize=18;fillColor=#647687;fontColor=#ffffff;strokeColor=#314354;gradientColor=none;" vertex="1" parent="1">
                    <mxGeometry x="600" y="20" width="110" height="61.25" as="geometry"/>
                </mxCell>
                <mxCell id="69" value="order_date" style="ellipse;whiteSpace=wrap;html=1;fontSize=18;fillColor=#647687;fontColor=#ffffff;strokeColor=#314354;gradientColor=none;" vertex="1" parent="1">
                    <mxGeometry x="730" width="110" height="61.25" as="geometry"/>
                </mxCell>
                <mxCell id="70" value="order_amount" style="ellipse;whiteSpace=wrap;html=1;fontSize=18;fillColor=#647687;fontColor=#ffffff;strokeColor=#314354;gradientColor=none;" vertex="1" parent="1">
                    <mxGeometry x="760" y="81.25" width="127.5" height="68.75" as="geometry"/>
                </mxCell>
                <mxCell id="75" value="prod_id" style="ellipse;whiteSpace=wrap;html=1;fontSize=18;fillColor=#647687;fontColor=#ffffff;strokeColor=#314354;gradientColor=none;" vertex="1" parent="1">
                    <mxGeometry x="680" y="538.75" width="110" height="61.25" as="geometry"/>
                </mxCell>
                <mxCell id="76" value="prod_name" style="ellipse;whiteSpace=wrap;html=1;fontSize=18;fillColor=#647687;fontColor=#ffffff;strokeColor=#314354;gradientColor=none;" vertex="1" parent="1">
                    <mxGeometry x="830" y="538.75" width="110" height="61.25" as="geometry"/>
                </mxCell>
            </root>
        </mxGraphModel>
    </diagram>
</mxfile>